<mxfile host="65bd71144e">
    <diagram id="nStgQwYRXJMON5NWRh9A" name="Page-1">
        <mxGraphModel dx="2618" dy="800" grid="1" gridSize="10" guides="1" tooltips="1" connect="1" arrows="1" fold="1" page="1" pageScale="1" pageWidth="827" pageHeight="1169" math="0" shadow="0">
            <root>
                <mxCell id="0"/>
                <mxCell id="1" parent="0"/>
                <mxCell id="98" style="edgeStyle=none;html=1;" edge="1" parent="1">
                    <mxGeometry relative="1" as="geometry">
                        <mxPoint x="-680" y="280" as="targetPoint"/>
                        <mxPoint x="-360" y="280.53" as="sourcePoint"/>
                    </mxGeometry>
                </mxCell>
                <mxCell id="101" value="Asks to start monitoring for actor &lt;br&gt;with tag at location" style="edgeLabel;html=1;align=center;verticalAlign=middle;resizable=0;points=[];" vertex="1" connectable="0" parent="98">
                    <mxGeometry x="0.129" y="1" relative="1" as="geometry">
                        <mxPoint x="31" y="-21" as="offset"/>
                    </mxGeometry>
                </mxCell>
                <mxCell id="107" style="edgeStyle=none;html=1;" edge="1" parent="1">
                    <mxGeometry relative="1" as="geometry">
                        <mxPoint x="-680" y="440" as="targetPoint"/>
                        <mxPoint x="-360" y="440" as="sourcePoint"/>
                    </mxGeometry>
                </mxCell>
                <mxCell id="108" value="Sends events to car dashboard" style="edgeLabel;html=1;align=center;verticalAlign=middle;resizable=0;points=[];" vertex="1" connectable="0" parent="107">
                    <mxGeometry x="-0.0876" y="-2" relative="1" as="geometry">
                        <mxPoint x="-14" y="-13" as="offset"/>
                    </mxGeometry>
                </mxCell>
                <mxCell id="46" value="Notification Server" style="swimlane;whiteSpace=wrap;html=1;" vertex="1" parent="1">
                    <mxGeometry x="-360" y="80" width="460" height="480" as="geometry"/>
                </mxCell>
                <mxCell id="69" value="" style="image;html=1;image=img/lib/clip_art/computers/Server_Rack_128x128.png" vertex="1" parent="46">
                    <mxGeometry x="10" y="35" width="50" height="55" as="geometry"/>
                </mxCell>
                <mxCell id="71" value="Notification App" style="swimlane;whiteSpace=wrap;html=1;startSize=20;" vertex="1" parent="46">
                    <mxGeometry x="20" y="140" width="200" height="260" as="geometry"/>
                </mxCell>
                <mxCell id="72" style="edgeStyle=none;html=1;exitX=0.5;exitY=1;exitDx=0;exitDy=0;entryX=0.5;entryY=0;entryDx=0;entryDy=0;" edge="1" parent="71">
                    <mxGeometry relative="1" as="geometry">
                        <mxPoint x="110" y="180" as="targetPoint"/>
                    </mxGeometry>
                </mxCell>
                <mxCell id="73" value="&lt;b&gt;Keeps track of desired actors to be monitored&lt;/b&gt;&lt;div&gt;&lt;b&gt;&lt;br&gt;&lt;/b&gt;&lt;/div&gt;" style="html=1;dropTarget=0;whiteSpace=wrap;verticalAlign=bottom;" vertex="1" parent="71">
                    <mxGeometry x="10" y="50" width="180" height="80" as="geometry"/>
                </mxCell>
                <mxCell id="74" value="" style="shape=module;jettyWidth=8;jettyHeight=4;" vertex="1" parent="73">
                    <mxGeometry x="1" width="20" height="20" relative="1" as="geometry">
                        <mxPoint x="-27" y="7" as="offset"/>
                    </mxGeometry>
                </mxCell>
                <mxCell id="109" value="&lt;b&gt;Keeps track of known events&lt;/b&gt;&lt;div&gt;&lt;b&gt;&lt;br&gt;&lt;/b&gt;&lt;/div&gt;" style="html=1;dropTarget=0;whiteSpace=wrap;verticalAlign=bottom;" vertex="1" parent="71">
                    <mxGeometry x="10" y="160" width="180" height="65" as="geometry"/>
                </mxCell>
                <mxCell id="110" value="" style="shape=module;jettyWidth=8;jettyHeight=4;" vertex="1" parent="109">
                    <mxGeometry x="1" width="20" height="20" relative="1" as="geometry">
                        <mxPoint x="-27" y="7" as="offset"/>
                    </mxGeometry>
                </mxCell>
                <mxCell id="127" value="Customer experience app" style="swimlane;whiteSpace=wrap;html=1;startSize=20;" vertex="1" parent="46">
                    <mxGeometry x="240" y="140" width="200" height="260" as="geometry"/>
                </mxCell>
                <mxCell id="128" style="edgeStyle=none;html=1;exitX=0.5;exitY=1;exitDx=0;exitDy=0;entryX=0.5;entryY=0;entryDx=0;entryDy=0;" edge="1" parent="127">
                    <mxGeometry relative="1" as="geometry">
                        <mxPoint x="110" y="180" as="targetPoint"/>
                    </mxGeometry>
                </mxCell>
                <mxCell id="129" value="&lt;div&gt;&lt;b&gt;Keeps track of the time a passenger leave the car&lt;/b&gt;&lt;/div&gt;&lt;div&gt;&lt;b&gt;&lt;br&gt;&lt;/b&gt;&lt;/div&gt;" style="html=1;dropTarget=0;whiteSpace=wrap;verticalAlign=bottom;" vertex="1" parent="127">
                    <mxGeometry x="10" y="50" width="180" height="80" as="geometry"/>
                </mxCell>
                <mxCell id="130" value="" style="shape=module;jettyWidth=8;jettyHeight=4;" vertex="1" parent="129">
                    <mxGeometry x="1" width="20" height="20" relative="1" as="geometry">
                        <mxPoint x="-27" y="7" as="offset"/>
                    </mxGeometry>
                </mxCell>
                <mxCell id="131" value="&lt;div&gt;&lt;b&gt;Correlates leaving because on an event&lt;/b&gt;&lt;/div&gt;&lt;div&gt;&lt;b&gt;&lt;br&gt;&lt;/b&gt;&lt;/div&gt;" style="html=1;dropTarget=0;whiteSpace=wrap;verticalAlign=bottom;" vertex="1" parent="127">
                    <mxGeometry x="10" y="160" width="180" height="80" as="geometry"/>
                </mxCell>
                <mxCell id="132" value="" style="shape=module;jettyWidth=8;jettyHeight=4;" vertex="1" parent="131">
                    <mxGeometry x="1" width="20" height="20" relative="1" as="geometry">
                        <mxPoint x="-27" y="7" as="offset"/>
                    </mxGeometry>
                </mxCell>
                <mxCell id="102" style="edgeStyle=none;html=1;" edge="1" parent="1">
                    <mxGeometry relative="1" as="geometry">
                        <mxPoint x="-360" y="360" as="targetPoint"/>
                        <mxPoint x="-680" y="360" as="sourcePoint"/>
                    </mxGeometry>
                </mxCell>
                <mxCell id="103" value="Reports when actor is no longer seen&lt;br&gt;at location" style="edgeLabel;html=1;align=center;verticalAlign=middle;resizable=0;points=[];" vertex="1" connectable="0" parent="102">
                    <mxGeometry x="-0.3032" y="2" relative="1" as="geometry">
                        <mxPoint x="58" y="-18" as="offset"/>
                    </mxGeometry>
                </mxCell>
                <mxCell id="63" value="Vehicle" style="swimlane;whiteSpace=wrap;html=1;startSize=23;" vertex="1" parent="1">
                    <mxGeometry x="-1160" y="80" width="480" height="480" as="geometry"/>
                </mxCell>
                <mxCell id="64" style="edgeStyle=none;html=1;exitX=0.5;exitY=1;exitDx=0;exitDy=0;entryX=0.5;entryY=0;entryDx=0;entryDy=0;" edge="1" parent="63">
                    <mxGeometry relative="1" as="geometry">
                        <mxPoint x="110" y="180" as="targetPoint"/>
                    </mxGeometry>
                </mxCell>
                <mxCell id="67" value="" style="shape=mxgraph.signs.transportation.car_2;html=1;pointerEvents=1;fillColor=#000000;strokeColor=none;verticalLabelPosition=bottom;verticalAlign=top;align=center;" vertex="1" parent="63">
                    <mxGeometry x="30" y="30" width="150" height="50" as="geometry"/>
                </mxCell>
                <mxCell id="45" value="Carla" style="swimlane;whiteSpace=wrap;html=1;" vertex="1" parent="63">
                    <mxGeometry x="20" y="90" width="210" height="230" as="geometry"/>
                </mxCell>
                <mxCell id="41" style="edgeStyle=none;html=1;exitX=0.5;exitY=1;exitDx=0;exitDy=0;entryX=0.5;entryY=0;entryDx=0;entryDy=0;" edge="1" parent="45" source="40">
                    <mxGeometry relative="1" as="geometry">
                        <mxPoint x="110" y="180" as="targetPoint"/>
                    </mxGeometry>
                </mxCell>
                <mxCell id="49" value="&lt;b&gt;Semantic Segmentation&lt;/b&gt;&lt;div&gt;&lt;br&gt;&lt;/div&gt;&lt;div&gt;&lt;span style=&quot;color: rgb(51, 51, 51); font-family: Verdana;&quot;&gt;Color coded Image&lt;/span&gt;&lt;/div&gt;" style="html=1;dropTarget=0;whiteSpace=wrap;" vertex="1" parent="45">
                    <mxGeometry x="10" y="120" width="190" height="100" as="geometry"/>
                </mxCell>
                <mxCell id="50" value="" style="shape=module;jettyWidth=8;jettyHeight=4;" vertex="1" parent="49">
                    <mxGeometry x="1" width="20" height="20" relative="1" as="geometry">
                        <mxPoint x="-27" y="7" as="offset"/>
                    </mxGeometry>
                </mxCell>
                <mxCell id="51" value="&lt;b&gt;Ego-Location&lt;/b&gt;&lt;div&gt;&lt;br&gt;&lt;/div&gt;&lt;div&gt;XYZ vector&lt;/div&gt;" style="html=1;dropTarget=0;whiteSpace=wrap;" vertex="1" parent="45">
                    <mxGeometry x="10" y="40" width="190" height="70" as="geometry"/>
                </mxCell>
                <mxCell id="52" value="" style="shape=module;jettyWidth=8;jettyHeight=4;" vertex="1" parent="51">
                    <mxGeometry x="1" width="20" height="20" relative="1" as="geometry">
                        <mxPoint x="-27" y="7" as="offset"/>
                    </mxGeometry>
                </mxCell>
                <mxCell id="57" value="Actor Monitor" style="swimlane;whiteSpace=wrap;html=1;startSize=23;" vertex="1" parent="63">
                    <mxGeometry x="250" y="50" width="210" height="120" as="geometry"/>
                </mxCell>
                <mxCell id="58" style="edgeStyle=none;html=1;exitX=0.5;exitY=1;exitDx=0;exitDy=0;entryX=0.5;entryY=0;entryDx=0;entryDy=0;" edge="1" parent="57">
                    <mxGeometry relative="1" as="geometry">
                        <mxPoint x="110" y="180" as="targetPoint"/>
                    </mxGeometry>
                </mxCell>
                <mxCell id="61" value="&lt;b&gt;Start watching for actors with specific tag&lt;/b&gt;&lt;div&gt;&lt;b&gt;&lt;br&gt;&lt;/b&gt;&lt;/div&gt;" style="html=1;dropTarget=0;whiteSpace=wrap;verticalAlign=bottom;" vertex="1" parent="57">
                    <mxGeometry x="10" y="30" width="190" height="80" as="geometry"/>
                </mxCell>
                <mxCell id="62" value="" style="shape=module;jettyWidth=8;jettyHeight=4;" vertex="1" parent="61">
                    <mxGeometry x="1" width="20" height="20" relative="1" as="geometry">
                        <mxPoint x="-27" y="7" as="offset"/>
                    </mxGeometry>
                </mxCell>
                <mxCell id="89" value="Event Monitor" style="swimlane;whiteSpace=wrap;html=1;startSize=23;verticalAlign=middle;" vertex="1" parent="63">
                    <mxGeometry x="250" y="190" width="210" height="130" as="geometry"/>
                </mxCell>
                <mxCell id="90" style="edgeStyle=none;html=1;exitX=0.5;exitY=1;exitDx=0;exitDy=0;entryX=0.5;entryY=0;entryDx=0;entryDy=0;" edge="1" parent="89">
                    <mxGeometry relative="1" as="geometry">
                        <mxPoint x="110" y="180" as="targetPoint"/>
                    </mxGeometry>
                </mxCell>
                <mxCell id="91" value="&lt;b&gt;Start watching for actors&lt;/b&gt;&lt;div&gt;&lt;b&gt;&amp;nbsp;with specific tag at specific location&lt;/b&gt;&lt;/div&gt;&lt;div&gt;&lt;b&gt;&lt;br&gt;&lt;/b&gt;&lt;/div&gt;" style="html=1;dropTarget=0;whiteSpace=wrap;verticalAlign=bottom;" vertex="1" parent="89">
                    <mxGeometry x="10" y="30" width="190" height="90" as="geometry"/>
                </mxCell>
                <mxCell id="92" value="" style="shape=module;jettyWidth=8;jettyHeight=4;" vertex="1" parent="91">
                    <mxGeometry x="1" width="20" height="20" relative="1" as="geometry">
                        <mxPoint x="-27" y="7" as="offset"/>
                    </mxGeometry>
                </mxCell>
                <mxCell id="111" value="Car Dashboard" style="swimlane;whiteSpace=wrap;html=1;" vertex="1" parent="63">
                    <mxGeometry x="250" y="340" width="210" height="120" as="geometry"/>
                </mxCell>
                <mxCell id="112" value="&lt;b&gt;Reports what events are in the cars location&lt;/b&gt;&lt;div&gt;&lt;b&gt;&lt;br&gt;&lt;/b&gt;&lt;/div&gt;" style="html=1;dropTarget=0;whiteSpace=wrap;verticalAlign=bottom;" vertex="1" parent="111">
                    <mxGeometry x="10" y="30" width="190" height="80" as="geometry"/>
                </mxCell>
                <mxCell id="113" value="" style="shape=module;jettyWidth=8;jettyHeight=4;" vertex="1" parent="112">
                    <mxGeometry x="1" width="20" height="20" relative="1" as="geometry">
                        <mxPoint x="-27" y="7" as="offset"/>
                    </mxGeometry>
                </mxCell>
                <mxCell id="116" value="Passenger left car" style="swimlane;whiteSpace=wrap;html=1;" vertex="1" parent="63">
                    <mxGeometry x="20" y="330" width="210" height="130" as="geometry"/>
                </mxCell>
                <mxCell id="117" value="&lt;b&gt;Reports the information regarding the passenger&lt;/b&gt;&lt;div&gt;&lt;b&gt;leaving the car before&lt;/b&gt;&lt;/div&gt;&lt;div&gt;&lt;b&gt;reaching the destination&lt;/b&gt;&lt;/div&gt;" style="html=1;dropTarget=0;whiteSpace=wrap;verticalAlign=bottom;" vertex="1" parent="116">
                    <mxGeometry x="10" y="30" width="190" height="90" as="geometry"/>
                </mxCell>
                <mxCell id="118" value="" style="shape=module;jettyWidth=8;jettyHeight=4;" vertex="1" parent="117">
                    <mxGeometry x="1" width="20" height="20" relative="1" as="geometry">
                        <mxPoint x="-27" y="7" as="offset"/>
                    </mxGeometry>
                </mxCell>
                <mxCell id="94" style="edgeStyle=none;html=1;" edge="1" parent="1">
                    <mxGeometry relative="1" as="geometry">
                        <mxPoint x="-360" y="120" as="sourcePoint"/>
                        <mxPoint x="-680" y="120" as="targetPoint"/>
                    </mxGeometry>
                </mxCell>
                <mxCell id="95" value="Asks to start monitoring for actor with tag" style="edgeLabel;html=1;align=center;verticalAlign=middle;resizable=0;points=[];" vertex="1" connectable="0" parent="94">
                    <mxGeometry x="0.0798" y="-4" relative="1" as="geometry">
                        <mxPoint x="16" y="-11" as="offset"/>
                    </mxGeometry>
                </mxCell>
                <mxCell id="96" style="edgeStyle=none;html=1;" edge="1" parent="1">
                    <mxGeometry relative="1" as="geometry">
                        <mxPoint x="-360" y="200" as="targetPoint"/>
                        <mxPoint x="-680" y="200" as="sourcePoint"/>
                    </mxGeometry>
                </mxCell>
                <mxCell id="97" value="Reports when actor is seen" style="edgeLabel;html=1;align=center;verticalAlign=middle;resizable=0;points=[];" vertex="1" connectable="0" parent="96">
                    <mxGeometry x="-0.0645" y="1" relative="1" as="geometry">
                        <mxPoint y="-8" as="offset"/>
                    </mxGeometry>
                </mxCell>
                <mxCell id="135" style="edgeStyle=none;html=1;" edge="1" parent="1">
                    <mxGeometry relative="1" as="geometry">
                        <mxPoint x="-360" y="520" as="targetPoint"/>
                        <mxPoint x="-680" y="520" as="sourcePoint"/>
                    </mxGeometry>
                </mxCell>
                <mxCell id="136" value="Sends event of passenger leaving" style="edgeLabel;html=1;align=center;verticalAlign=middle;resizable=0;points=[];" vertex="1" connectable="0" parent="135">
                    <mxGeometry x="-0.0645" y="1" relative="1" as="geometry">
                        <mxPoint x="11" y="-8" as="offset"/>
                    </mxGeometry>
                </mxCell>
            </root>
        </mxGraphModel>
    </diagram>
</mxfile>